<svg id="Layer_1" data-name="Layer 1" xmlns="http://www.w3.org/2000/svg" xmlns:xlink="http://www.w3.org/1999/xlink" viewBox="0 0 3144.4 1273.8"><defs><style>.cls-1{fill:none;}.cls-2{fill:url(#linear-gradient);}.cls-3{fill:url(#linear-gradient-2);}.cls-22,.cls-23,.cls-24,.cls-25,.cls-26,.cls-4{fill-rule:evenodd;}.cls-4{fill:url(#linear-gradient-3);}.cls-5{fill:url(#linear-gradient-4);}.cls-6{fill:url(#linear-gradient-5);}.cls-7{fill:url(#linear-gradient-6);}.cls-8{fill:url(#linear-gradient-7);}.cls-9{fill:url(#linear-gradient-8);}.cls-10{fill:url(#linear-gradient-9);}.cls-11{fill:url(#linear-gradient-10);}.cls-12{fill:url(#linear-gradient-11);}.cls-13{fill:url(#linear-gradient-12);}.cls-14{fill:url(#linear-gradient-13);}.cls-15{fill:url(#linear-gradient-14);}.cls-16{fill:url(#linear-gradient-15);}.cls-17{fill:url(#linear-gradient-16);}.cls-18{fill:url(#linear-gradient-17);}.cls-19{fill:url(#linear-gradient-18);}.cls-20{fill:url(#linear-gradient-19);}.cls-21{fill:url(#linear-gradient-20);}.cls-22{fill:#fff;}.cls-23{fill:#15003e;}.cls-24{fill:#0fce7c;}.cls-25{fill:#eff4ee;}.cls-26{fill:#25e899;}.cls-27{fill:url(#linear-gradient-21);}.cls-28{clip-path:url(#clip-path);}.cls-29{fill:url(#linear-gradient-22);}.cls-30{fill:url(#linear-gradient-23);}.cls-31{fill:url(#linear-gradient-24);}.cls-32{fill:url(#linear-gradient-25);}.cls-33{fill:url(#linear-gradient-26);}.cls-34{fill:url(#linear-gradient-27);}</style><linearGradient id="linear-gradient" y1="556" x2="3000" y2="556" gradientTransform="matrix(1, 0, 0, -1, 144.4, 1112)" gradientUnits="userSpaceOnUse"><stop offset="1" stop-color="#0e0133"/><stop offset="1" stop-color="#14bd92"/></linearGradient><linearGradient id="linear-gradient-2" x1="943.6" y1="799.15" x2="1240.66" y2="799.15" gradientUnits="userSpaceOnUse"><stop offset="0" stop-color="#09e3ac"/><stop offset="1" stop-color="#14bd92"/></linearGradient><linearGradient id="linear-gradient-3" x1="120.4" y1="665.2" x2="2879.6" y2="665.2" gradientTransform="matrix(1, 0, 0, -1, 0, 1112)" gradientUnits="userSpaceOnUse"><stop offset="0" stop-color="#fff"/><stop offset="0" stop-color="#14bd92"/></linearGradient><linearGradient id="linear-gradient-4" x1="-1617.1" y1="-408.98" x2="-1054.09" y2="-408.98" gradientTransform="matrix(-1, 0, 0, 1, 1382.8, 1011.98)" gradientUnits="userSpaceOnUse"><stop offset="0" stop-color="#5cf2cd"/><stop offset="0.42" stop-color="#36d6ae"/><stop offset="0.78" stop-color="#1dc49a"/><stop offset="1" stop-color="#14bd92"/></linearGradient><linearGradient id="linear-gradient-5" x1="-1578.7" y1="-447.58" x2="-1015.6" y2="-447.58" xlink:href="#linear-gradient-4"/><linearGradient id="linear-gradient-6" x1="-1540" y1="-486.18" x2="-976.96" y2="-486.18" xlink:href="#linear-gradient-4"/><linearGradient id="linear-gradient-7" x1="-1501.4" y1="-524.73" x2="-938.3" y2="-524.73" xlink:href="#linear-gradient-4"/><linearGradient id="linear-gradient-8" x1="-1462.8" y1="-563.38" x2="-899.75" y2="-563.38" xlink:href="#linear-gradient-4"/><linearGradient id="linear-gradient-9" x1="-1424.2" y1="-601.98" x2="-861.2" y2="-601.98" xlink:href="#linear-gradient-4"/><linearGradient id="linear-gradient-10" x1="-1385.6" y1="-640.48" x2="-822.6" y2="-640.48" xlink:href="#linear-gradient-4"/><linearGradient id="linear-gradient-11" x1="-1347" y1="-679.18" x2="-784" y2="-679.18" xlink:href="#linear-gradient-4"/><linearGradient id="linear-gradient-12" x1="-1308.4" y1="-717.68" x2="-745.4" y2="-717.68" xlink:href="#linear-gradient-4"/><linearGradient id="linear-gradient-13" x1="-1269.86" y1="-743.38" x2="-706.79" y2="-743.38" xlink:href="#linear-gradient-4"/><linearGradient id="linear-gradient-14" x1="-1231.27" y1="-762.68" x2="-668.21" y2="-762.68" xlink:href="#linear-gradient-4"/><linearGradient id="linear-gradient-15" x1="-1192.67" y1="-781.98" x2="-629.61" y2="-781.98" xlink:href="#linear-gradient-4"/><linearGradient id="linear-gradient-16" x1="-1154.09" y1="-801.28" x2="-591.02" y2="-801.28" xlink:href="#linear-gradient-4"/><linearGradient id="linear-gradient-17" x1="-1115.48" y1="-820.58" x2="-552.42" y2="-820.58" xlink:href="#linear-gradient-4"/><linearGradient id="linear-gradient-18" x1="-1076.9" y1="-839.88" x2="-513.84" y2="-839.88" xlink:href="#linear-gradient-4"/><linearGradient id="linear-gradient-19" x1="-1038.29" y1="-859.18" x2="-475.24" y2="-859.18" xlink:href="#linear-gradient-4"/><linearGradient id="linear-gradient-20" x1="-999.7" y1="-878.48" x2="-436.64" y2="-878.48" xlink:href="#linear-gradient-4"/><linearGradient id="linear-gradient-21" x1="433.88" y1="274.56" x2="433.88" y2="647.49" gradientTransform="matrix(0.71, 0.71, 0.71, -0.71, -337.23, 402.64)" gradientUnits="userSpaceOnUse"><stop offset="0.01" stop-color="#fff" stop-opacity="0"/><stop offset="1" stop-color="#fff"/></linearGradient><clipPath id="clip-path" transform="translate(144.4)"><rect class="cls-1" y="-589.7" width="2269.3" height="1701.7"/></clipPath><linearGradient id="linear-gradient-22" x1="1927.94" y1="710.78" x2="1927.94" y2="1083.71" xlink:href="#linear-gradient-21"/><linearGradient id="linear-gradient-23" x1="1983.09" y1="1593.18" x2="1983.09" y2="1966.04" xlink:href="#linear-gradient-21"/><linearGradient id="linear-gradient-24" x1="787.33" y1="-304.5" x2="787.33" y2="68.43" xlink:href="#linear-gradient-21"/><linearGradient id="linear-gradient-25" x1="1265.41" y1="39.3" x2="1265.41" y2="412.23" xlink:href="#linear-gradient-21"/><linearGradient id="linear-gradient-26" x1="1015.44" y1="114.11" x2="1015.44" y2="487.04" xlink:href="#linear-gradient-21"/><linearGradient id="linear-gradient-27" x1="1571.98" y1="856.16" x2="1571.98" y2="1229.09" xlink:href="#linear-gradient-21"/></defs><rect class="cls-2" x="144.4" width="3000" height="1112"/><ellipse class="cls-3" cx="1092.13" cy="799.15" rx="148.53" ry="166.28"/><path class="cls-4" d="M2764.5,24a82.24,82.24,0,0,1-24-24H355.2c-4.8,16-8.2,32.7-8.2,50.3a168.52,168.52,0,0,0,3.5,35.1s-11.7,75.9-93.2,37.9H257A94.66,94.66,0,0,0,120.4,208c0,52.2,42.3,94.8,94.5,94.8a93.18,93.18,0,0,0,30.4-5c57.2-8.4,66.6,34.9,42.3,78.3a222.23,222.23,0,0,0-28.2,108.8c0,123.6,100.2,223.8,223.7,223.8S706.9,608.5,706.9,484.9c0-3.9,0-7.8-.2-11.7-9.3-45.5,29.7-111.7,98.9-37.1a198.5,198.5,0,0,0,276.6,27.3c22.5-18,71.3-55.9,79.4,4.8a363,363,0,0,0-2.8,46.8c0,209,169.3,378.6,378.6,378.6,183.6,0,336.9-130.9,371.4-304.6,0,0,26.7-65.9,86.1-22.8h.2A222.51,222.51,0,0,0,2154,632.5c121.8,0,220.9-97.4,223.7-218.6,0,0,20.4-98.9,113-43.8a222.58,222.58,0,0,0,165.2,73.1c123.6,0,223.7-100.2,223.7-223.7A223.52,223.52,0,0,0,2764.5,24Z" transform="translate(144.4)"/><path class="cls-5" d="M2437.8,879.2l556.8-556.8a3.11,3.11,0,1,1,4.4,4.4L2442.1,883.6a3.14,3.14,0,0,1-4.4,0A3.24,3.24,0,0,1,2437.8,879.2Z" transform="translate(144.4)"/><path class="cls-6" d="M2956.1,283.8,2399.3,840.6a3.11,3.11,0,0,0,4.4,4.4l556.9-556.8a3.14,3.14,0,0,0,0-4.4A3.26,3.26,0,0,0,2956.1,283.8Z" transform="translate(144.4)"/><path class="cls-7" d="M2360.7,802l556.8-556.8a3.11,3.11,0,0,1,4.4,4.4L2365.1,806.4a3.14,3.14,0,0,1-4.4,0A3,3,0,0,1,2360.7,802Z" transform="translate(144.4)"/><path class="cls-8" d="M2878.9,206.6,2322,763.5a3.11,3.11,0,1,0,4.4,4.4L2883.3,211a3.11,3.11,0,1,0-4.4-4.4Z" transform="translate(144.4)"/><path class="cls-9" d="M2283.5,724.8,2840.3,168a3.11,3.11,0,1,1,4.4,4.4L2287.8,729.2a3.08,3.08,0,1,1-4.3-4.4Z" transform="translate(144.4)"/><path class="cls-10" d="M2801.7,129.4,2244.9,686.2a3.11,3.11,0,0,0,4.4,4.4l556.8-556.8a3.11,3.11,0,0,0-4.4-4.4Z" transform="translate(144.4)"/><path class="cls-11" d="M2206.3,647.7,2763.1,90.9a3.11,3.11,0,1,1,4.4,4.4L2210.7,652.1a3.11,3.11,0,1,1-4.4-4.4Z" transform="translate(144.4)"/><path class="cls-12" d="M2724.5,52.2,2167.7,609a3.11,3.11,0,1,0,4.4,4.4L2728.9,56.6a3.11,3.11,0,0,0-4.4-4.4Z" transform="translate(144.4)"/><path class="cls-13" d="M2129.1,570.5,2685.9,13.7a3.11,3.11,0,1,1,4.4,4.4L2133.5,574.9a3.11,3.11,0,0,1-4.4-4.4Z" transform="translate(144.4)"/><path class="cls-14" d="M2622.4,0,2090.5,531.9a3.11,3.11,0,1,0,4.4,4.4L2631.2,0Z" transform="translate(144.4)"/><path class="cls-15" d="M2545.2,0,2051.9,493.3a3.11,3.11,0,0,0,4.4,4.4L2554,0Z" transform="translate(144.4)"/><path class="cls-16" d="M2468,0,2013.3,454.7a3.11,3.11,0,0,0,4.4,4.4L2476.8,0Z" transform="translate(144.4)"/><path class="cls-17" d="M2390.8,0,1974.7,416.1a3.11,3.11,0,0,0,4.4,4.4L2399.6,0Z" transform="translate(144.4)"/><path class="cls-18" d="M2313.7,0,1936.2,377.5a3.11,3.11,0,0,0,4.4,4.4L2322.4,0Z" transform="translate(144.4)"/><path class="cls-19" d="M2236.5,0,1897.6,338.9a3.11,3.11,0,1,0,4.4,4.4L2245.3,0Z" transform="translate(144.4)"/><path class="cls-20" d="M2159.3,0,1859,300.3a3.11,3.11,0,0,0,4.4,4.4L2168.1,0Z" transform="translate(144.4)"/><path class="cls-21" d="M2082.1,0,1820.4,261.7a3.11,3.11,0,1,0,4.4,4.4L2090.9,0Z" transform="translate(144.4)"/><path class="cls-22" d="M1005.1,737.8l22.5,44.4-17.1,72.7-40.8-33.3,7.1-53.3Z" transform="translate(144.4)"/><path class="cls-23" d="M944.8,722.9a8.49,8.49,0,0,1-8.5-8.5V647.5a8.5,8.5,0,0,1,17,0v66.9a8.49,8.49,0,0,1-8.5,8.5" transform="translate(144.4)"/><path class="cls-23" d="M958.5,722.9H932.2a8.5,8.5,0,0,1,0-17h26.3a8.56,8.56,0,0,1,8.4,8.6,8.45,8.45,0,0,1-8.4,8.4" transform="translate(144.4)"/><path class="cls-22" d="M1005.1,737.8l27.9-26.3a118,118,0,1,0-83.5,201.4c24.3,0,45.7,8.9,64.4-3.7l23.4,3.2-.7-37.9-66.9-53,14.4-67.7,21-16" transform="translate(144.4)"/><path class="cls-23" d="M949.5,924.6a129.6,129.6,0,1,1,91.6-221.2l8.4,8.4-36.6,34.5L997,729.4l18.7-17.7a106.39,106.39,0,1,0-66.3,189.6" transform="translate(144.4)"/><path class="cls-24" d="M1014.6,858,998,841.9a67.5,67.5,0,0,0-1.4-95.3l-8.7-8.4,9.3-8.8,7.9,8.4,7.6-7.8a90,90,0,0,1,27.5,65,91,91,0,0,1-25.6,63" transform="translate(144.4)"/><path class="cls-25" d="M922.9,795a26.6,26.6,0,1,1,26.6,26.6A26.59,26.59,0,0,1,922.9,795" transform="translate(144.4)"/><path class="cls-23" d="M949.5,779.9A15.1,15.1,0,1,0,964.6,795a15.15,15.15,0,0,0-15.1-15.1m0,53.3A38.2,38.2,0,1,1,987.7,795a38.2,38.2,0,0,1-38.2,38.2M1033,711.5l-67.4,62.2" transform="translate(144.4)"/><path class="cls-23" d="M973.5,782.2l-15.7-17,67.4-62.2,15.7,17Z" transform="translate(144.4)"/><path class="cls-22" d="M962.1,818.5l48.4,36.4,26.1,19.7v50l-52.5-2.5" transform="translate(144.4)"/><path class="cls-23" d="M1048.2,924.6H947.4V901.4H1025v-21l-69.9-52.7L969,809.2l79.2,59.6Z" transform="translate(144.4)"/><path class="cls-26" d="M1075,653.9l-9.3,9.3-9.3-9.3,9.3-9.3Z" transform="translate(144.4)"/><path class="cls-26" d="M1025.4,609.1l-4.4,4.4-4.4-4.4,4.4-4.4Zm46.1-39a6.7,6.7,0,0,0-13.4,0h0a6.7,6.7,0,0,0,13.4,0" transform="translate(144.4)"/><path class="cls-23" d="M904.6,746.3a8.49,8.49,0,0,1-8.5-8.5V647.5a8.5,8.5,0,0,1,17,0v90.3a8.49,8.49,0,0,1-8.5,8.5" transform="translate(144.4)"/><polygon class="cls-27" points="167.9 519.5 159.5 511.1 423.2 247.4 431.6 255.8 167.9 519.5"/><g class="cls-28"><polygon class="cls-29" points="1532.8 1267.5 1524.4 1259.1 1788.1 995.4 1796.5 1003.8 1532.8 1267.5"/><polygon class="cls-30" points="2195.8 682.6 2187.3 674.1 2451 410.5 2459.4 418.9 2195.8 682.6"/><polygon class="cls-31" points="8.4 1178.9 0 1170.5 263.6 906.8 272.1 915.2 8.4 1178.9"/><polygon class="cls-32" points="589.5 1273.8 581.1 1265.4 844.8 1001.7 853.2 1010.2 589.5 1273.8"/></g><polygon class="cls-33" points="465.7 1044.2 457.3 1035.7 721 772.1 729.4 780.5 465.7 1044.2"/><polygon class="cls-34" points="1383.9 913 1375.5 904.6 1639.2 640.9 1647.6 649.3 1383.9 913"/></svg>