<?xml version="1.0" encoding="utf-8"?>
<!-- Generator: Adobe Illustrator 25.0.0, SVG Export Plug-In . SVG Version: 6.00 Build 0)  -->
<svg version="1.1" id="Layer_1" xmlns="http://www.w3.org/2000/svg" xmlns:xlink="http://www.w3.org/1999/xlink" x="0px" y="0px"
	 viewBox="0 0 3000 1112" style="enable-background:new 0 0 3000 1112;" xml:space="preserve">
<style type="text/css">
	.st0{fill:url(#SVGID_1_);}
	.st1{fill-rule:evenodd;clip-rule:evenodd;fill:url(#SVGID_2_);}
	.st2{filter:url(#Adobe_OpacityMaskFilter);}
	.st3{fill:url(#SVGID_4_);}
	.st4{mask:url(#SVGID_3_);}
	.st5{fill:url(#SVGID_5_);}
	.st6{filter:url(#Adobe_OpacityMaskFilter_1_);}
	.st7{fill:url(#SVGID_7_);}
	.st8{mask:url(#SVGID_6_);}
	.st9{fill:url(#SVGID_8_);}
	.st10{filter:url(#Adobe_OpacityMaskFilter_2_);}
	.st11{fill:url(#SVGID_10_);}
	.st12{mask:url(#SVGID_9_);}
	.st13{fill:url(#SVGID_11_);}
	.st14{filter:url(#Adobe_OpacityMaskFilter_3_);}
	.st15{fill:url(#SVGID_13_);}
	.st16{mask:url(#SVGID_12_);}
	.st17{fill:url(#SVGID_14_);}
	.st18{filter:url(#Adobe_OpacityMaskFilter_4_);}
	.st19{fill:url(#SVGID_16_);}
	.st20{mask:url(#SVGID_15_);}
	.st21{fill:url(#SVGID_17_);}
	.st22{filter:url(#Adobe_OpacityMaskFilter_5_);}
	.st23{fill:url(#SVGID_19_);}
	.st24{mask:url(#SVGID_18_);}
	.st25{fill:url(#SVGID_20_);}
	.st26{filter:url(#Adobe_OpacityMaskFilter_6_);}
	.st27{fill:url(#SVGID_22_);}
	.st28{mask:url(#SVGID_21_);}
	.st29{fill:url(#SVGID_23_);}
	.st30{filter:url(#Adobe_OpacityMaskFilter_7_);}
	.st31{fill:url(#SVGID_25_);}
	.st32{mask:url(#SVGID_24_);}
	.st33{fill:url(#SVGID_26_);}
	.st34{filter:url(#Adobe_OpacityMaskFilter_8_);}
	.st35{fill:url(#SVGID_28_);}
	.st36{mask:url(#SVGID_27_);}
	.st37{fill:url(#SVGID_29_);}
	.st38{filter:url(#Adobe_OpacityMaskFilter_9_);}
	.st39{fill:url(#SVGID_31_);}
	.st40{mask:url(#SVGID_30_);}
	.st41{fill:url(#SVGID_32_);}
	.st42{filter:url(#Adobe_OpacityMaskFilter_10_);}
	.st43{fill:url(#SVGID_34_);}
	.st44{mask:url(#SVGID_33_);}
	.st45{fill:url(#SVGID_35_);}
	.st46{filter:url(#Adobe_OpacityMaskFilter_11_);}
	.st47{fill:url(#SVGID_37_);}
	.st48{mask:url(#SVGID_36_);}
	.st49{fill:url(#SVGID_38_);}
	.st50{filter:url(#Adobe_OpacityMaskFilter_12_);}
	.st51{fill:url(#SVGID_40_);}
	.st52{mask:url(#SVGID_39_);}
	.st53{fill:url(#SVGID_41_);}
	.st54{filter:url(#Adobe_OpacityMaskFilter_13_);}
	.st55{fill:url(#SVGID_43_);}
	.st56{mask:url(#SVGID_42_);}
	.st57{fill:url(#SVGID_44_);}
	.st58{filter:url(#Adobe_OpacityMaskFilter_14_);}
	.st59{fill:url(#SVGID_46_);}
	.st60{mask:url(#SVGID_45_);}
	.st61{fill:url(#SVGID_47_);}
	.st62{filter:url(#Adobe_OpacityMaskFilter_15_);}
	.st63{fill:url(#SVGID_49_);}
	.st64{mask:url(#SVGID_48_);}
	.st65{fill:url(#SVGID_50_);}
	.st66{filter:url(#Adobe_OpacityMaskFilter_16_);}
	.st67{fill:url(#SVGID_52_);}
	.st68{mask:url(#SVGID_51_);}
	.st69{fill:url(#SVGID_53_);}
	.st70{fill-rule:evenodd;clip-rule:evenodd;fill:#FFFFFF;}
	.st71{fill-rule:evenodd;clip-rule:evenodd;fill:#15003E;}
	.st72{fill-rule:evenodd;clip-rule:evenodd;fill:#0FCE7C;}
	.st73{fill-rule:evenodd;clip-rule:evenodd;fill:#EFF4EE;}
	.st74{fill-rule:evenodd;clip-rule:evenodd;fill:#FFFFFF;filter:url(#Adobe_OpacityMaskFilter_17_);}
	.st75{mask:url(#a_2_);fill-rule:evenodd;clip-rule:evenodd;fill:#25E899;}
	.st76{fill-rule:evenodd;clip-rule:evenodd;fill:#25E899;}
	.st77{fill:url(#SVGID_54_);}
	.st78{clip-path:url(#SVGID_56_);}
	.st79{fill:url(#SVGID_57_);}
	.st80{fill:url(#SVGID_58_);}
	.st81{fill:url(#SVGID_59_);}
	.st82{fill:url(#SVGID_60_);}
	.st83{fill:url(#SVGID_61_);}
	.st84{fill:url(#SVGID_62_);}
</style>
<linearGradient id="SVGID_1_" gradientUnits="userSpaceOnUse" x1="0" y1="556" x2="3000" y2="556">
	<stop  offset="0" style="stop-color:#0E0133"/>
	<stop  offset="1" style="stop-color:#14BD92"/>
</linearGradient>
<rect class="st0" width="3000" height="1112"/>
<g>
	<g>
		<linearGradient id="SVGID_2_" gradientUnits="userSpaceOnUse" x1="120.414" y1="446.8425" x2="2879.5859" y2="446.8425">
			<stop  offset="0" style="stop-color:#09E3AC"/>
			<stop  offset="1" style="stop-color:#14BD92"/>
		</linearGradient>
		<path class="st1" d="M2764.5,24c0,0-13.9-8.3-24-24H355.2c-4.8,16-8.2,32.7-8.2,50.3c0,12.1,1.1,23.8,3.5,35.1
			c0,0-11.7,75.9-93.2,37.9H257c-12.6-6.3-26.9-9.8-42.1-9.8c-52.3,0-94.5,42.3-94.5,94.5s42.3,94.8,94.5,94.8
			c10.6,0,20.8-1.7,30.4-5c57.2-8.4,66.6,34.9,42.3,78.3c-18,32.1-28.2,69.4-28.2,108.8c0,123.6,100.2,223.8,223.7,223.8
			c123.6,0,223.8-100.2,223.8-223.8c0-3.9,0-7.8-0.2-11.7c-9.3-45.5,29.7-111.7,98.9-37.1c36.4,43.4,91.1,71.1,152.4,71.1
			c47.1,0,90.2-16.5,124.2-43.8c22.5-18,71.3-55.9,79.4,4.8c-2,15.4-2.8,31-2.8,46.8c0,209,169.3,378.6,378.6,378.6
			c183.6,0,336.9-130.9,371.4-304.6c0,0,26.7-65.9,86.1-22.8h0.2c40.5,41,96.7,66.3,158.9,66.3c121.8,0,220.9-97.4,223.7-218.6
			c0,0,20.4-98.9,113-43.8c40.8,44.9,99.7,73.1,165.2,73.1c123.6,0,223.7-100.2,223.7-223.7C2879.6,135.5,2833.2,62.2,2764.5,24z"/>
	</g>
</g>
<g>
	<defs>
		<filter id="Adobe_OpacityMaskFilter" filterUnits="userSpaceOnUse" x="2436.9" y="321.5" width="563.1" height="563.1">
			<feColorMatrix  type="matrix" values="1 0 0 0 0  0 1 0 0 0  0 0 1 0 0  0 0 0 1 0"/>
		</filter>
	</defs>
	<mask maskUnits="userSpaceOnUse" x="2436.9" y="321.5" width="563.1" height="563.1" id="SVGID_3_">
		<g class="st2">
			
				<linearGradient id="SVGID_4_" gradientUnits="userSpaceOnUse" x1="-1643.4741" y1="-253.821" x2="-883.2647" y2="-253.821" gradientTransform="matrix(-0.7071 0.7071 -0.7071 -0.7071 1654.9633 1312.3712)">
				<stop  offset="0" style="stop-color:#FFFFFF"/>
				<stop  offset="8.953783e-02" style="stop-color:#F8F8F8"/>
				<stop  offset="0.2155" style="stop-color:#E6E6E6"/>
				<stop  offset="0.3631" style="stop-color:#C8C8C8"/>
				<stop  offset="0.5271" style="stop-color:#9E9E9E"/>
				<stop  offset="0.7047" style="stop-color:#686868"/>
				<stop  offset="0.8909" style="stop-color:#272727"/>
				<stop  offset="0.9949" style="stop-color:#000000"/>
			</linearGradient>
			<polygon class="st3" points="2364.2,864.9 2975.5,253.6 3072.7,350.8 2461.4,962 			"/>
		</g>
	</mask>
	<g class="st4">
		
			<linearGradient id="SVGID_5_" gradientUnits="userSpaceOnUse" x1="-1617.1989" y1="1520.9867" x2="-1054.1344" y2="1520.9867" gradientTransform="matrix(-1 0 0 -1 1382.8011 2123.9832)">
			<stop  offset="0" style="stop-color:#5CF2CD"/>
			<stop  offset="0.4226" style="stop-color:#36D6AE"/>
			<stop  offset="0.7825" style="stop-color:#1DC49A"/>
			<stop  offset="1" style="stop-color:#14BD92"/>
		</linearGradient>
		<path class="st5" d="M2437.8,879.2l556.8-556.8c1.2-1.2,3.2-1.2,4.4,0c1.2,1.2,1.2,3.2,0,4.4l-556.9,556.8c-1.2,1.2-3.2,1.2-4.4,0
			C2436.6,882.4,2436.6,880.4,2437.8,879.2z"/>
	</g>
	<defs>
		<filter id="Adobe_OpacityMaskFilter_1_" filterUnits="userSpaceOnUse" x="2398.3" y="282.9" width="563.1" height="563.1">
			<feColorMatrix  type="matrix" values="1 0 0 0 0  0 1 0 0 0  0 0 1 0 0  0 0 0 1 0"/>
		</filter>
	</defs>
	<mask maskUnits="userSpaceOnUse" x="2398.3" y="282.9" width="563.1" height="563.1" id="SVGID_6_">
		<g class="st6">
			
				<linearGradient id="SVGID_7_" gradientUnits="userSpaceOnUse" x1="2329.4033" y1="-199.2377" x2="3089.6128" y2="-199.2377" gradientTransform="matrix(0.7071 -0.7071 -0.7071 -0.7071 618.6183 2348.7163)">
				<stop  offset="0" style="stop-color:#FFFFFF"/>
				<stop  offset="8.953783e-02" style="stop-color:#F8F8F8"/>
				<stop  offset="0.2155" style="stop-color:#E6E6E6"/>
				<stop  offset="0.3631" style="stop-color:#C8C8C8"/>
				<stop  offset="0.5271" style="stop-color:#9E9E9E"/>
				<stop  offset="0.7047" style="stop-color:#686868"/>
				<stop  offset="0.8909" style="stop-color:#272727"/>
				<stop  offset="0.9949" style="stop-color:#000000"/>
			</linearGradient>
			<polygon class="st7" points="2941.8,210.2 2330.5,821.5 2427.6,918.6 3038.9,307.3 			"/>
		</g>
	</mask>
	<g class="st8">
		
			<linearGradient id="SVGID_8_" gradientUnits="userSpaceOnUse" x1="-1578.6036" y1="1559.58" x2="-1015.5406" y2="1559.58" gradientTransform="matrix(-1 0 0 -1 1382.8011 2123.9832)">
			<stop  offset="0" style="stop-color:#5CF2CD"/>
			<stop  offset="0.4226" style="stop-color:#36D6AE"/>
			<stop  offset="0.7825" style="stop-color:#1DC49A"/>
			<stop  offset="1" style="stop-color:#14BD92"/>
		</linearGradient>
		<path class="st9" d="M2956.1,283.8l-556.8,556.8c-1.2,1.2-1.2,3.2,0,4.4c1.2,1.2,3.2,1.2,4.4,0l556.9-556.8c1.2-1.2,1.2-3.2,0-4.4
			C2959.3,282.6,2957.3,282.6,2956.1,283.8z"/>
	</g>
	<defs>
		<filter id="Adobe_OpacityMaskFilter_2_" filterUnits="userSpaceOnUse" x="2359.8" y="244.3" width="563.1" height="563.1">
			<feColorMatrix  type="matrix" values="1 0 0 0 0  0 1 0 0 0  0 0 1 0 0  0 0 0 1 0"/>
		</filter>
	</defs>
	<mask maskUnits="userSpaceOnUse" x="2359.8" y="244.3" width="563.1" height="563.1" id="SVGID_9_">
		<g class="st10">
			
				<linearGradient id="SVGID_10_" gradientUnits="userSpaceOnUse" x1="-1643.4796" y1="-144.6636" x2="-883.2652" y2="-144.6636" gradientTransform="matrix(-0.7071 0.7071 -0.7071 -0.7071 1654.9633 1312.3712)">
				<stop  offset="0" style="stop-color:#FFFFFF"/>
				<stop  offset="8.953783e-02" style="stop-color:#F8F8F8"/>
				<stop  offset="0.2155" style="stop-color:#E6E6E6"/>
				<stop  offset="0.3631" style="stop-color:#C8C8C8"/>
				<stop  offset="0.5271" style="stop-color:#9E9E9E"/>
				<stop  offset="0.7047" style="stop-color:#686868"/>
				<stop  offset="0.8909" style="stop-color:#272727"/>
				<stop  offset="0.9949" style="stop-color:#000000"/>
			</linearGradient>
			<polygon class="st11" points="2287.1,787.7 2898.3,176.4 2995.5,273.6 2384.2,884.9 			"/>
		</g>
	</mask>
	<g class="st12">
		
			<linearGradient id="SVGID_11_" gradientUnits="userSpaceOnUse" x1="-1540.0073" y1="1598.1727" x2="-976.9517" y2="1598.1727" gradientTransform="matrix(-1 0 0 -1 1382.8011 2123.9832)">
			<stop  offset="0" style="stop-color:#5CF2CD"/>
			<stop  offset="0.4226" style="stop-color:#36D6AE"/>
			<stop  offset="0.7825" style="stop-color:#1DC49A"/>
			<stop  offset="1" style="stop-color:#14BD92"/>
		</linearGradient>
		<path class="st13" d="M2360.7,802l556.8-556.8c1.2-1.2,3.2-1.2,4.4,0c1.2,1.2,1.2,3.2,0,4.4l-556.8,556.8c-1.2,1.2-3.2,1.2-4.4,0
			C2359.5,805.2,2359.4,803.3,2360.7,802z"/>
	</g>
	<defs>
		<filter id="Adobe_OpacityMaskFilter_3_" filterUnits="userSpaceOnUse" x="2321.2" y="205.7" width="563.1" height="563.1">
			<feColorMatrix  type="matrix" values="1 0 0 0 0  0 1 0 0 0  0 0 1 0 0  0 0 0 1 0"/>
		</filter>
	</defs>
	<mask maskUnits="userSpaceOnUse" x="2321.2" y="205.7" width="563.1" height="563.1" id="SVGID_12_">
		<g class="st14">
			
				<linearGradient id="SVGID_13_" gradientUnits="userSpaceOnUse" x1="2329.4033" y1="-90.0827" x2="3089.6128" y2="-90.0827" gradientTransform="matrix(0.7071 -0.7071 -0.7071 -0.7071 618.6183 2348.7163)">
				<stop  offset="0" style="stop-color:#FFFFFF"/>
				<stop  offset="8.953783e-02" style="stop-color:#F8F8F8"/>
				<stop  offset="0.2155" style="stop-color:#E6E6E6"/>
				<stop  offset="0.3631" style="stop-color:#C8C8C8"/>
				<stop  offset="0.5271" style="stop-color:#9E9E9E"/>
				<stop  offset="0.7047" style="stop-color:#686868"/>
				<stop  offset="0.8909" style="stop-color:#272727"/>
				<stop  offset="0.9949" style="stop-color:#000000"/>
			</linearGradient>
			<polygon class="st15" points="2864.6,133 2253.3,744.3 2350.5,841.4 2961.7,230.2 			"/>
		</g>
	</mask>
	<g class="st16">
		
			<linearGradient id="SVGID_14_" gradientUnits="userSpaceOnUse" x1="-1501.4146" y1="1636.766" x2="-938.355" y2="1636.766" gradientTransform="matrix(-1 0 0 -1 1382.8011 2123.9832)">
			<stop  offset="0" style="stop-color:#5CF2CD"/>
			<stop  offset="0.4226" style="stop-color:#36D6AE"/>
			<stop  offset="0.7825" style="stop-color:#1DC49A"/>
			<stop  offset="1" style="stop-color:#14BD92"/>
		</linearGradient>
		<path class="st17" d="M2878.9,206.6l-556.9,556.9c-1.2,1.2-1.2,3.2,0,4.4c1.2,1.2,3.2,1.2,4.4,0L2883.3,211c1.2-1.2,1.2-3.2,0-4.4
			C2882.1,205.4,2880.1,205.4,2878.9,206.6z"/>
	</g>
	<defs>
		<filter id="Adobe_OpacityMaskFilter_4_" filterUnits="userSpaceOnUse" x="2282.6" y="167.1" width="563.1" height="563.1">
			<feColorMatrix  type="matrix" values="1 0 0 0 0  0 1 0 0 0  0 0 1 0 0  0 0 0 1 0"/>
		</filter>
	</defs>
	<mask maskUnits="userSpaceOnUse" x="2282.6" y="167.1" width="563.1" height="563.1" id="SVGID_15_">
		<g class="st18">
			
				<linearGradient id="SVGID_16_" gradientUnits="userSpaceOnUse" x1="-1643.475" y1="-35.5053" x2="-883.2648" y2="-35.5053" gradientTransform="matrix(-0.7071 0.7071 -0.7071 -0.7071 1654.9633 1312.3712)">
				<stop  offset="0" style="stop-color:#FFFFFF"/>
				<stop  offset="8.953783e-02" style="stop-color:#F8F8F8"/>
				<stop  offset="0.2155" style="stop-color:#E6E6E6"/>
				<stop  offset="0.3631" style="stop-color:#C8C8C8"/>
				<stop  offset="0.5271" style="stop-color:#9E9E9E"/>
				<stop  offset="0.7047" style="stop-color:#686868"/>
				<stop  offset="0.8909" style="stop-color:#272727"/>
				<stop  offset="0.9949" style="stop-color:#000000"/>
			</linearGradient>
			<polygon class="st19" points="2209.9,710.5 2821.1,99.2 2918.3,196.4 2307,807.7 			"/>
		</g>
	</mask>
	<g class="st20">
		
			<linearGradient id="SVGID_17_" gradientUnits="userSpaceOnUse" x1="-1462.8274" y1="1675.3577" x2="-899.7623" y2="1675.3577" gradientTransform="matrix(-1 0 0 -1 1382.8011 2123.9832)">
			<stop  offset="0" style="stop-color:#5CF2CD"/>
			<stop  offset="0.4226" style="stop-color:#36D6AE"/>
			<stop  offset="0.7825" style="stop-color:#1DC49A"/>
			<stop  offset="1" style="stop-color:#14BD92"/>
		</linearGradient>
		<path class="st21" d="M2283.5,724.8L2840.3,168c1.2-1.2,3.2-1.2,4.4,0c1.2,1.2,1.2,3.2,0,4.4l-556.9,556.8c-1.2,1.2-3.2,1.2-4.4,0
			C2282.3,728,2282.2,726.1,2283.5,724.8z"/>
	</g>
	<defs>
		<filter id="Adobe_OpacityMaskFilter_5_" filterUnits="userSpaceOnUse" x="2244" y="128.5" width="563.1" height="563.1">
			<feColorMatrix  type="matrix" values="1 0 0 0 0  0 1 0 0 0  0 0 1 0 0  0 0 0 1 0"/>
		</filter>
	</defs>
	<mask maskUnits="userSpaceOnUse" x="2244" y="128.5" width="563.1" height="563.1" id="SVGID_18_">
		<g class="st22">
			
				<linearGradient id="SVGID_19_" gradientUnits="userSpaceOnUse" x1="2329.3989" y1="19.0775" x2="3089.6133" y2="19.0775" gradientTransform="matrix(0.7071 -0.7071 -0.7071 -0.7071 618.6183 2348.7163)">
				<stop  offset="0" style="stop-color:#FFFFFF"/>
				<stop  offset="8.953783e-02" style="stop-color:#F8F8F8"/>
				<stop  offset="0.2155" style="stop-color:#E6E6E6"/>
				<stop  offset="0.3631" style="stop-color:#C8C8C8"/>
				<stop  offset="0.5271" style="stop-color:#9E9E9E"/>
				<stop  offset="0.7047" style="stop-color:#686868"/>
				<stop  offset="0.8909" style="stop-color:#272727"/>
				<stop  offset="0.9949" style="stop-color:#000000"/>
			</linearGradient>
			<polygon class="st23" points="2787.4,55.8 2176.1,667.1 2273.3,764.3 2884.6,153 			"/>
		</g>
	</mask>
	<g class="st24">
		
			<linearGradient id="SVGID_20_" gradientUnits="userSpaceOnUse" x1="-1424.2311" y1="1713.952" x2="-861.1685" y2="1713.952" gradientTransform="matrix(-1 0 0 -1 1382.8011 2123.9832)">
			<stop  offset="0" style="stop-color:#5CF2CD"/>
			<stop  offset="0.4226" style="stop-color:#36D6AE"/>
			<stop  offset="0.7825" style="stop-color:#1DC49A"/>
			<stop  offset="1" style="stop-color:#14BD92"/>
		</linearGradient>
		<path class="st25" d="M2801.7,129.4l-556.8,556.8c-1.2,1.2-1.2,3.2,0,4.4s3.2,1.2,4.4,0l556.8-556.8c1.2-1.2,1.2-3.2,0-4.4
			C2804.9,128.2,2802.9,128.2,2801.7,129.4z"/>
	</g>
	<defs>
		<filter id="Adobe_OpacityMaskFilter_6_" filterUnits="userSpaceOnUse" x="2205.4" y="89.9" width="563.1" height="563.1">
			<feColorMatrix  type="matrix" values="1 0 0 0 0  0 1 0 0 0  0 0 1 0 0  0 0 0 1 0"/>
		</filter>
	</defs>
	<mask maskUnits="userSpaceOnUse" x="2205.4" y="89.9" width="563.1" height="563.1" id="SVGID_21_">
		<g class="st26">
			
				<linearGradient id="SVGID_22_" gradientUnits="userSpaceOnUse" x1="-1643.4796" y1="73.6583" x2="-883.2652" y2="73.6583" gradientTransform="matrix(-0.7071 0.7071 -0.7071 -0.7071 1654.9633 1312.3712)">
				<stop  offset="0" style="stop-color:#FFFFFF"/>
				<stop  offset="8.953783e-02" style="stop-color:#F8F8F8"/>
				<stop  offset="0.2155" style="stop-color:#E6E6E6"/>
				<stop  offset="0.3631" style="stop-color:#C8C8C8"/>
				<stop  offset="0.5271" style="stop-color:#9E9E9E"/>
				<stop  offset="0.7047" style="stop-color:#686868"/>
				<stop  offset="0.8909" style="stop-color:#272727"/>
				<stop  offset="0.9949" style="stop-color:#000000"/>
			</linearGradient>
			<polygon class="st27" points="2132.7,633.3 2744,22 2841.1,119.2 2229.8,730.5 			"/>
		</g>
	</mask>
	<g class="st28">
		
			<linearGradient id="SVGID_23_" gradientUnits="userSpaceOnUse" x1="-1385.6383" y1="1752.5437" x2="-822.5789" y2="1752.5437" gradientTransform="matrix(-1 0 0 -1 1382.8011 2123.9832)">
			<stop  offset="0" style="stop-color:#5CF2CD"/>
			<stop  offset="0.4226" style="stop-color:#36D6AE"/>
			<stop  offset="0.7825" style="stop-color:#1DC49A"/>
			<stop  offset="1" style="stop-color:#14BD92"/>
		</linearGradient>
		<path class="st29" d="M2206.3,647.7l556.8-556.8c1.2-1.2,3.2-1.2,4.4,0c1.2,1.2,1.2,3.2,0,4.4l-556.8,556.8
			c-1.2,1.2-3.2,1.2-4.4,0C2205.1,650.8,2205.1,648.9,2206.3,647.7z"/>
	</g>
	<defs>
		<filter id="Adobe_OpacityMaskFilter_7_" filterUnits="userSpaceOnUse" x="2166.8" y="51.3" width="563.1" height="563.1">
			<feColorMatrix  type="matrix" values="1 0 0 0 0  0 1 0 0 0  0 0 1 0 0  0 0 0 1 0"/>
		</filter>
	</defs>
	<mask maskUnits="userSpaceOnUse" x="2166.8" y="51.3" width="563.1" height="563.1" id="SVGID_24_">
		<g class="st30">
			
				<linearGradient id="SVGID_25_" gradientUnits="userSpaceOnUse" x1="2329.3979" y1="128.2358" x2="3089.6123" y2="128.2358" gradientTransform="matrix(0.7071 -0.7071 -0.7071 -0.7071 618.6183 2348.7163)">
				<stop  offset="0" style="stop-color:#FFFFFF"/>
				<stop  offset="8.953783e-02" style="stop-color:#F8F8F8"/>
				<stop  offset="0.2155" style="stop-color:#E6E6E6"/>
				<stop  offset="0.3631" style="stop-color:#C8C8C8"/>
				<stop  offset="0.5271" style="stop-color:#9E9E9E"/>
				<stop  offset="0.7047" style="stop-color:#686868"/>
				<stop  offset="0.8909" style="stop-color:#272727"/>
				<stop  offset="0.9949" style="stop-color:#000000"/>
			</linearGradient>
			<polygon class="st31" points="2710.2,-21.4 2098.9,589.9 2196.1,687.1 2807.4,75.8 			"/>
		</g>
	</mask>
	<g class="st32">
		
			<linearGradient id="SVGID_26_" gradientUnits="userSpaceOnUse" x1="-1347.0428" y1="1791.137" x2="-783.985" y2="1791.137" gradientTransform="matrix(-1 0 0 -1 1382.8011 2123.9832)">
			<stop  offset="0" style="stop-color:#5CF2CD"/>
			<stop  offset="0.4226" style="stop-color:#36D6AE"/>
			<stop  offset="0.7825" style="stop-color:#1DC49A"/>
			<stop  offset="1" style="stop-color:#14BD92"/>
		</linearGradient>
		<path class="st33" d="M2724.5,52.2l-556.8,556.8c-1.2,1.2-1.2,3.2,0,4.4c1.2,1.2,3.2,1.2,4.4,0l556.8-556.8c1.2-1.2,1.2-3.2,0-4.4
			C2727.7,51,2725.8,51,2724.5,52.2z"/>
	</g>
	<defs>
		<filter id="Adobe_OpacityMaskFilter_8_" filterUnits="userSpaceOnUse" x="2128.2" y="12.7" width="563.1" height="563.1">
			<feColorMatrix  type="matrix" values="1 0 0 0 0  0 1 0 0 0  0 0 1 0 0  0 0 0 1 0"/>
		</filter>
	</defs>
	<mask maskUnits="userSpaceOnUse" x="2128.2" y="12.7" width="563.1" height="563.1" id="SVGID_27_">
		<g class="st34">
			
				<linearGradient id="SVGID_28_" gradientUnits="userSpaceOnUse" x1="-1643.4796" y1="182.8133" x2="-883.2652" y2="182.8133" gradientTransform="matrix(-0.7071 0.7071 -0.7071 -0.7071 1654.9633 1312.3712)">
				<stop  offset="0" style="stop-color:#FFFFFF"/>
				<stop  offset="8.953783e-02" style="stop-color:#F8F8F8"/>
				<stop  offset="0.2155" style="stop-color:#E6E6E6"/>
				<stop  offset="0.3631" style="stop-color:#C8C8C8"/>
				<stop  offset="0.5271" style="stop-color:#9E9E9E"/>
				<stop  offset="0.7047" style="stop-color:#686868"/>
				<stop  offset="0.8909" style="stop-color:#272727"/>
				<stop  offset="0.9949" style="stop-color:#000000"/>
			</linearGradient>
			<polygon class="st35" points="2055.5,556.1 2666.8,-55.2 2764,42 2152.7,653.3 			"/>
		</g>
	</mask>
	<g class="st36">
		
			<linearGradient id="SVGID_29_" gradientUnits="userSpaceOnUse" x1="-1308.4548" y1="1829.7288" x2="-745.3897" y2="1829.7288" gradientTransform="matrix(-1 0 0 -1 1382.8011 2123.9832)">
			<stop  offset="0" style="stop-color:#5CF2CD"/>
			<stop  offset="0.4226" style="stop-color:#36D6AE"/>
			<stop  offset="0.7825" style="stop-color:#1DC49A"/>
			<stop  offset="1" style="stop-color:#14BD92"/>
		</linearGradient>
		<path class="st37" d="M2129.1,570.5l556.8-556.8c1.2-1.2,3.2-1.2,4.4,0c1.2,1.2,1.2,3.2,0,4.4l-556.8,556.8
			c-1.2,1.2-3.2,1.2-4.4,0C2127.9,573.7,2127.9,571.7,2129.1,570.5z"/>
	</g>
	<defs>
		<filter id="Adobe_OpacityMaskFilter_9_" filterUnits="userSpaceOnUse" x="2089.6" y="0" width="541.6" height="537.2">
			<feColorMatrix  type="matrix" values="1 0 0 0 0  0 1 0 0 0  0 0 1 0 0  0 0 0 1 0"/>
		</filter>
	</defs>
	<mask maskUnits="userSpaceOnUse" x="2089.6" y="0" width="541.6" height="537.2" id="SVGID_30_">
		<g class="st38">
			
				<linearGradient id="SVGID_31_" gradientUnits="userSpaceOnUse" x1="2329.3979" y1="237.3937" x2="3089.6123" y2="237.3937" gradientTransform="matrix(0.7071 -0.7071 -0.7071 -0.7071 618.6183 2348.7163)">
				<stop  offset="0" style="stop-color:#FFFFFF"/>
				<stop  offset="8.953783e-02" style="stop-color:#F8F8F8"/>
				<stop  offset="0.2155" style="stop-color:#E6E6E6"/>
				<stop  offset="0.3631" style="stop-color:#C8C8C8"/>
				<stop  offset="0.5271" style="stop-color:#9E9E9E"/>
				<stop  offset="0.7047" style="stop-color:#686868"/>
				<stop  offset="0.8909" style="stop-color:#272727"/>
				<stop  offset="0.9949" style="stop-color:#000000"/>
			</linearGradient>
			<polygon class="st39" points="2633,-98.6 2021.7,512.7 2118.9,609.9 2730.2,-1.4 			"/>
		</g>
	</mask>
	<g class="st40">
		
			<linearGradient id="SVGID_32_" gradientUnits="userSpaceOnUse" x1="-1269.8621" y1="1855.3895" x2="-706.7949" y2="1855.3895" gradientTransform="matrix(-1 0 0 -1 1382.8011 2123.9832)">
			<stop  offset="0" style="stop-color:#5CF2CD"/>
			<stop  offset="0.4226" style="stop-color:#36D6AE"/>
			<stop  offset="0.7825" style="stop-color:#1DC49A"/>
			<stop  offset="1" style="stop-color:#14BD92"/>
		</linearGradient>
		<path class="st41" d="M2622.4,0l-531.9,531.9c-1.2,1.2-1.2,3.2,0,4.4c1.2,1.2,3.2,1.2,4.4,0L2631.2,0H2622.4z"/>
	</g>
	<defs>
		<filter id="Adobe_OpacityMaskFilter_10_" filterUnits="userSpaceOnUse" x="2051" y="0" width="503" height="498.6">
			<feColorMatrix  type="matrix" values="1 0 0 0 0  0 1 0 0 0  0 0 1 0 0  0 0 0 1 0"/>
		</filter>
	</defs>
	<mask maskUnits="userSpaceOnUse" x="2051" y="0" width="503" height="498.6" id="SVGID_33_">
		<g class="st42">
			
				<linearGradient id="SVGID_34_" gradientUnits="userSpaceOnUse" x1="-1643.4805" y1="291.9712" x2="-883.2653" y2="291.9712" gradientTransform="matrix(-0.7071 0.7071 -0.7071 -0.7071 1654.9633 1312.3712)">
				<stop  offset="0" style="stop-color:#FFFFFF"/>
				<stop  offset="8.953783e-02" style="stop-color:#F8F8F8"/>
				<stop  offset="0.2155" style="stop-color:#E6E6E6"/>
				<stop  offset="0.3631" style="stop-color:#C8C8C8"/>
				<stop  offset="0.5271" style="stop-color:#9E9E9E"/>
				<stop  offset="0.7047" style="stop-color:#686868"/>
				<stop  offset="0.8909" style="stop-color:#272727"/>
				<stop  offset="0.9949" style="stop-color:#000000"/>
			</linearGradient>
			<polygon class="st43" points="1978.3,479 2589.6,-132.3 2686.8,-35.2 2075.5,576.1 			"/>
		</g>
	</mask>
	<g class="st44">
		
			<linearGradient id="SVGID_35_" gradientUnits="userSpaceOnUse" x1="-1231.2654" y1="1874.6833" x2="-668.2063" y2="1874.6833" gradientTransform="matrix(-1 0 0 -1 1382.8011 2123.9832)">
			<stop  offset="0" style="stop-color:#5CF2CD"/>
			<stop  offset="0.4226" style="stop-color:#36D6AE"/>
			<stop  offset="0.7825" style="stop-color:#1DC49A"/>
			<stop  offset="1" style="stop-color:#14BD92"/>
		</linearGradient>
		<path class="st45" d="M2545.2,0l-493.3,493.3c-1.2,1.2-1.2,3.2,0,4.4c1.2,1.2,3.2,1.2,4.4,0L2554,0H2545.2z"/>
	</g>
	<defs>
		<filter id="Adobe_OpacityMaskFilter_11_" filterUnits="userSpaceOnUse" x="2012.4" y="0" width="464.4" height="460">
			<feColorMatrix  type="matrix" values="1 0 0 0 0  0 1 0 0 0  0 0 1 0 0  0 0 0 1 0"/>
		</filter>
	</defs>
	<mask maskUnits="userSpaceOnUse" x="2012.4" y="0" width="464.4" height="460" id="SVGID_36_">
		<g class="st46">
			
				<linearGradient id="SVGID_37_" gradientUnits="userSpaceOnUse" x1="2329.4033" y1="346.5544" x2="3089.6128" y2="346.5544" gradientTransform="matrix(0.7071 -0.7071 -0.7071 -0.7071 618.6183 2348.7163)">
				<stop  offset="0" style="stop-color:#FFFFFF"/>
				<stop  offset="8.953783e-02" style="stop-color:#F8F8F8"/>
				<stop  offset="0.2155" style="stop-color:#E6E6E6"/>
				<stop  offset="0.3631" style="stop-color:#C8C8C8"/>
				<stop  offset="0.5271" style="stop-color:#9E9E9E"/>
				<stop  offset="0.7047" style="stop-color:#686868"/>
				<stop  offset="0.8909" style="stop-color:#272727"/>
				<stop  offset="0.9949" style="stop-color:#000000"/>
			</linearGradient>
			<polygon class="st47" points="2555.8,-175.8 1944.5,435.5 2041.7,532.7 2653,-78.6 			"/>
		</g>
	</mask>
	<g class="st48">
		
			<linearGradient id="SVGID_38_" gradientUnits="userSpaceOnUse" x1="-1192.6683" y1="1893.9812" x2="-629.613" y2="1893.9812" gradientTransform="matrix(-1 0 0 -1 1382.8011 2123.9832)">
			<stop  offset="0" style="stop-color:#5CF2CD"/>
			<stop  offset="0.4226" style="stop-color:#36D6AE"/>
			<stop  offset="0.7825" style="stop-color:#1DC49A"/>
			<stop  offset="1" style="stop-color:#14BD92"/>
		</linearGradient>
		<path class="st49" d="M2468,0l-454.7,454.7c-1.2,1.2-1.2,3.2,0,4.4c1.2,1.2,3.2,1.2,4.4,0L2476.8,0H2468z"/>
	</g>
	<defs>
		<filter id="Adobe_OpacityMaskFilter_12_" filterUnits="userSpaceOnUse" x="1973.8" y="0" width="425.8" height="421.4">
			<feColorMatrix  type="matrix" values="1 0 0 0 0  0 1 0 0 0  0 0 1 0 0  0 0 0 1 0"/>
		</filter>
	</defs>
	<mask maskUnits="userSpaceOnUse" x="1973.8" y="0" width="425.8" height="421.4" id="SVGID_39_">
		<g class="st50">
			
				<linearGradient id="SVGID_40_" gradientUnits="userSpaceOnUse" x1="-1643.4741" y1="401.1319" x2="-883.2648" y2="401.1319" gradientTransform="matrix(-0.7071 0.7071 -0.7071 -0.7071 1654.9633 1312.3712)">
				<stop  offset="0" style="stop-color:#FFFFFF"/>
				<stop  offset="8.953783e-02" style="stop-color:#F8F8F8"/>
				<stop  offset="0.2155" style="stop-color:#E6E6E6"/>
				<stop  offset="0.3631" style="stop-color:#C8C8C8"/>
				<stop  offset="0.5271" style="stop-color:#9E9E9E"/>
				<stop  offset="0.7047" style="stop-color:#686868"/>
				<stop  offset="0.8909" style="stop-color:#272727"/>
				<stop  offset="0.9949" style="stop-color:#000000"/>
			</linearGradient>
			<polygon class="st51" points="1901.1,401.8 2512.4,-209.5 2609.6,-112.3 1998.3,498.9 			"/>
		</g>
	</mask>
	<g class="st52">
		
			<linearGradient id="SVGID_41_" gradientUnits="userSpaceOnUse" x1="-1154.0867" y1="1913.2792" x2="-591.0159" y2="1913.2792" gradientTransform="matrix(-1 0 0 -1 1382.8011 2123.9832)">
			<stop  offset="0" style="stop-color:#5CF2CD"/>
			<stop  offset="0.4226" style="stop-color:#36D6AE"/>
			<stop  offset="0.7825" style="stop-color:#1DC49A"/>
			<stop  offset="1" style="stop-color:#14BD92"/>
		</linearGradient>
		<path class="st53" d="M2390.8,0l-416.1,416.1c-1.2,1.2-1.2,3.2,0,4.4c1.2,1.2,3.2,1.2,4.4,0L2399.6,0H2390.8z"/>
	</g>
	<defs>
		<filter id="Adobe_OpacityMaskFilter_13_" filterUnits="userSpaceOnUse" x="1935.2" y="0" width="387.2" height="382.8">
			<feColorMatrix  type="matrix" values="1 0 0 0 0  0 1 0 0 0  0 0 1 0 0  0 0 0 1 0"/>
		</filter>
	</defs>
	<mask maskUnits="userSpaceOnUse" x="1935.2" y="0" width="387.2" height="382.8" id="SVGID_42_">
		<g class="st54">
			
				<linearGradient id="SVGID_43_" gradientUnits="userSpaceOnUse" x1="2329.4033" y1="455.7094" x2="3089.6128" y2="455.7094" gradientTransform="matrix(0.7071 -0.7071 -0.7071 -0.7071 618.6183 2348.7163)">
				<stop  offset="0" style="stop-color:#FFFFFF"/>
				<stop  offset="8.953783e-02" style="stop-color:#F8F8F8"/>
				<stop  offset="0.2155" style="stop-color:#E6E6E6"/>
				<stop  offset="0.3631" style="stop-color:#C8C8C8"/>
				<stop  offset="0.5271" style="stop-color:#9E9E9E"/>
				<stop  offset="0.7047" style="stop-color:#686868"/>
				<stop  offset="0.8909" style="stop-color:#272727"/>
				<stop  offset="0.9949" style="stop-color:#000000"/>
			</linearGradient>
			<polygon class="st55" points="2478.6,-252.9 1867.4,358.3 1964.5,455.5 2575.8,-155.8 			"/>
		</g>
	</mask>
	<g class="st56">
		
			<linearGradient id="SVGID_44_" gradientUnits="userSpaceOnUse" x1="-1115.4834" y1="1932.576" x2="-552.423" y2="1932.576" gradientTransform="matrix(-1 0 0 -1 1382.8011 2123.9832)">
			<stop  offset="0" style="stop-color:#5CF2CD"/>
			<stop  offset="0.4226" style="stop-color:#36D6AE"/>
			<stop  offset="0.7825" style="stop-color:#1DC49A"/>
			<stop  offset="1" style="stop-color:#14BD92"/>
		</linearGradient>
		<path class="st57" d="M2313.7,0l-377.5,377.5c-1.2,1.2-1.2,3.2,0,4.4c1.2,1.2,3.2,1.2,4.4,0L2322.4,0H2313.7z"/>
	</g>
	<defs>
		<filter id="Adobe_OpacityMaskFilter_14_" filterUnits="userSpaceOnUse" x="1896.6" y="0" width="348.6" height="344.2">
			<feColorMatrix  type="matrix" values="1 0 0 0 0  0 1 0 0 0  0 0 1 0 0  0 0 0 1 0"/>
		</filter>
	</defs>
	<mask maskUnits="userSpaceOnUse" x="1896.6" y="0" width="348.6" height="344.2" id="SVGID_45_">
		<g class="st58">
			
				<linearGradient id="SVGID_46_" gradientUnits="userSpaceOnUse" x1="-1643.4796" y1="510.2897" x2="-883.2652" y2="510.2897" gradientTransform="matrix(-0.7071 0.7071 -0.7071 -0.7071 1654.9633 1312.3712)">
				<stop  offset="0" style="stop-color:#FFFFFF"/>
				<stop  offset="8.953783e-02" style="stop-color:#F8F8F8"/>
				<stop  offset="0.2155" style="stop-color:#E6E6E6"/>
				<stop  offset="0.3631" style="stop-color:#C8C8C8"/>
				<stop  offset="0.5271" style="stop-color:#9E9E9E"/>
				<stop  offset="0.7047" style="stop-color:#686868"/>
				<stop  offset="0.8909" style="stop-color:#272727"/>
				<stop  offset="0.9949" style="stop-color:#000000"/>
			</linearGradient>
			<polygon class="st59" points="1823.9,324.6 2435.2,-286.7 2532.4,-189.5 1921.1,421.7 			"/>
		</g>
	</mask>
	<g class="st60">
		
			<linearGradient id="SVGID_47_" gradientUnits="userSpaceOnUse" x1="-1076.8961" y1="1951.8694" x2="-513.8374" y2="1951.8694" gradientTransform="matrix(-1 0 0 -1 1382.8011 2123.9832)">
			<stop  offset="0" style="stop-color:#5CF2CD"/>
			<stop  offset="0.4226" style="stop-color:#36D6AE"/>
			<stop  offset="0.7825" style="stop-color:#1DC49A"/>
			<stop  offset="1" style="stop-color:#14BD92"/>
		</linearGradient>
		<path class="st61" d="M2236.5,0l-338.9,338.9c-1.2,1.2-1.2,3.2,0,4.4c1.2,1.2,3.2,1.2,4.4,0L2245.3,0H2236.5z"/>
	</g>
	<defs>
		<filter id="Adobe_OpacityMaskFilter_15_" filterUnits="userSpaceOnUse" x="1858" y="0" width="310" height="305.6">
			<feColorMatrix  type="matrix" values="1 0 0 0 0  0 1 0 0 0  0 0 1 0 0  0 0 0 1 0"/>
		</filter>
	</defs>
	<mask maskUnits="userSpaceOnUse" x="1858" y="0" width="310" height="305.6" id="SVGID_48_">
		<g class="st62">
			
				<linearGradient id="SVGID_49_" gradientUnits="userSpaceOnUse" x1="2329.4033" y1="564.8701" x2="3089.6128" y2="564.8701" gradientTransform="matrix(0.7071 -0.7071 -0.7071 -0.7071 618.6183 2348.7163)">
				<stop  offset="0" style="stop-color:#FFFFFF"/>
				<stop  offset="8.953783e-02" style="stop-color:#F8F8F8"/>
				<stop  offset="0.2155" style="stop-color:#E6E6E6"/>
				<stop  offset="0.3631" style="stop-color:#C8C8C8"/>
				<stop  offset="0.5271" style="stop-color:#9E9E9E"/>
				<stop  offset="0.7047" style="stop-color:#686868"/>
				<stop  offset="0.8909" style="stop-color:#272727"/>
				<stop  offset="0.9949" style="stop-color:#000000"/>
			</linearGradient>
			<polygon class="st63" points="2401.5,-330.1 1790.2,281.2 1887.3,378.3 2498.6,-233 			"/>
		</g>
	</mask>
	<g class="st64">
		
			<linearGradient id="SVGID_50_" gradientUnits="userSpaceOnUse" x1="-1038.2893" y1="1971.1663" x2="-475.2402" y2="1971.1663" gradientTransform="matrix(-1 0 0 -1 1382.8011 2123.9832)">
			<stop  offset="0" style="stop-color:#5CF2CD"/>
			<stop  offset="0.4226" style="stop-color:#36D6AE"/>
			<stop  offset="0.7825" style="stop-color:#1DC49A"/>
			<stop  offset="1" style="stop-color:#14BD92"/>
		</linearGradient>
		<path class="st65" d="M2159.3,0L1859,300.3c-1.2,1.2-1.2,3.2,0,4.4c1.2,1.2,3.2,1.2,4.4,0L2168.1,0H2159.3z"/>
	</g>
	<defs>
		<filter id="Adobe_OpacityMaskFilter_16_" filterUnits="userSpaceOnUse" x="1819.4" y="0" width="271.4" height="267">
			<feColorMatrix  type="matrix" values="1 0 0 0 0  0 1 0 0 0  0 0 1 0 0  0 0 0 1 0"/>
		</filter>
	</defs>
	<mask maskUnits="userSpaceOnUse" x="1819.4" y="0" width="271.4" height="267" id="SVGID_51_">
		<g class="st66">
			
				<linearGradient id="SVGID_52_" gradientUnits="userSpaceOnUse" x1="-1643.4796" y1="619.4476" x2="-883.2652" y2="619.4476" gradientTransform="matrix(-0.7071 0.7071 -0.7071 -0.7071 1654.9633 1312.3712)">
				<stop  offset="0" style="stop-color:#FFFFFF"/>
				<stop  offset="8.953783e-02" style="stop-color:#F8F8F8"/>
				<stop  offset="0.2155" style="stop-color:#E6E6E6"/>
				<stop  offset="0.3631" style="stop-color:#C8C8C8"/>
				<stop  offset="0.5271" style="stop-color:#9E9E9E"/>
				<stop  offset="0.7047" style="stop-color:#686868"/>
				<stop  offset="0.8909" style="stop-color:#272727"/>
				<stop  offset="0.9949" style="stop-color:#000000"/>
			</linearGradient>
			<polygon class="st67" points="1746.8,247.4 2358,-363.9 2455.2,-266.7 1843.9,344.6 			"/>
		</g>
	</mask>
	<g class="st68">
		
			<linearGradient id="SVGID_53_" gradientUnits="userSpaceOnUse" x1="-999.7041" y1="1990.4641" x2="-436.6445" y2="1990.4641" gradientTransform="matrix(-1 0 0 -1 1382.8011 2123.9832)">
			<stop  offset="0" style="stop-color:#5CF2CD"/>
			<stop  offset="0.4226" style="stop-color:#36D6AE"/>
			<stop  offset="0.7825" style="stop-color:#1DC49A"/>
			<stop  offset="1" style="stop-color:#14BD92"/>
		</linearGradient>
		<path class="st69" d="M2082.1,0l-261.7,261.7c-1.2,1.2-1.2,3.2,0,4.4c1.2,1.2,3.2,1.2,4.4,0L2090.9,0H2082.1z"/>
	</g>
</g>
<g>
	<path class="st70" d="M1005.1,737.8l22.5,44.4l-17.1,72.7l-40.8-33.3l7.1-53.3L1005.1,737.8z"/>
	<path class="st71" d="M944.8,722.9c-4.7,0-8.5-3.8-8.5-8.5v-66.9c0-4.7,3.8-8.5,8.5-8.5s8.5,3.8,8.5,8.5v66.9
		C953.3,719.1,949.5,722.9,944.8,722.9"/>
	<path class="st71" d="M958.5,722.9h-26.3c-4.7-0.1-8.4-4-8.3-8.7c0.1-4.6,3.8-8.2,8.3-8.3h26.3c4.7,0.1,8.4,3.9,8.4,8.6
		C966.8,719.2,963.1,722.9,958.5,722.9"/>
	<path class="st70" d="M1005.1,737.8l27.9-26.3c-21.4-21.4-50.9-34.6-83.5-34.6c-65.2,0-118,52.8-118,118c0,65.2,52.8,118,118,118
		c24.3,0,45.7,8.9,64.4-3.7l23.4,3.2l-0.7-37.9l-66.9-53l14.4-67.7L1005.1,737.8"/>
	<path class="st71" d="M949.5,924.6c-71.5,0-129.6-58.1-129.6-129.6c0-71.5,58.1-129.6,129.6-129.6c34.6,0,67.2,13.5,91.6,38
		l8.4,8.4l-36.6,34.5l-15.9-16.9l18.7-17.7c-18.8-15-41.9-23.2-66.3-23.2c-58.7,0-106.4,47.7-106.4,106.4
		c0,58.7,47.7,106.4,106.4,106.4"/>
	<path class="st72" d="M1014.6,858l-16.6-16.1c12.2-12.6,19-29.3,19-46.9c0-18.4-7.3-35.6-20.4-48.4l-8.7-8.4l9.3-8.8l7.9,8.4
		l7.6-7.8c17.7,17.2,27.5,40.3,27.5,65C1040.1,818.6,1031,841,1014.6,858"/>
	<path class="st73" d="M922.9,795c0-14.7,11.9-26.6,26.6-26.6c14.7,0,26.6,11.9,26.6,26.6c0,14.7-11.9,26.6-26.6,26.6
		S922.9,809.7,922.9,795"/>
	<path class="st71" d="M949.5,779.9c-8.3,0-15.1,6.8-15.1,15.1c0,8.3,6.8,15.1,15.1,15.1c8.3,0,15.1-6.8,15.1-15.1
		C964.6,786.7,957.8,779.9,949.5,779.9 M949.5,833.2c-21.1,0-38.2-17.1-38.2-38.2c0-21.1,17.2-38.2,38.2-38.2
		c21.1,0,38.2,17.2,38.2,38.2C987.7,816,970.6,833.2,949.5,833.2 M1033,711.5l-67.4,62.2"/>
	<path class="st71" d="M973.5,782.2l-15.7-17l67.4-62.2l15.7,17L973.5,782.2z"/>
	<path class="st70" d="M962.1,818.5l48.4,36.4l26.1,19.7v50l-52.5-2.5"/>
	<path class="st71" d="M1048.2,924.6H947.4v-23.2h77.6v-21l-69.9-52.7l13.9-18.5l79.2,59.6L1048.2,924.6z"/>
	<defs>
		<filter id="Adobe_OpacityMaskFilter_17_" filterUnits="userSpaceOnUse" x="1056.4" y="644.6" width="18.6" height="18.6">
			<feColorMatrix  type="matrix" values="1 0 0 0 0  0 1 0 0 0  0 0 1 0 0  0 0 0 1 0"/>
		</filter>
	</defs>
	<mask maskUnits="userSpaceOnUse" x="1056.4" y="644.6" width="18.6" height="18.6" id="a_2_">
		<path class="st74" d="M820.5,564.6h18.6v18.6h-18.6V564.6z"/>
	</mask>
	<path class="st75" d="M1075,653.9l-9.3,9.3l-9.3-9.3l9.3-9.3L1075,653.9z"/>
	<path class="st76" d="M1025.4,609.1l-4.4,4.4l-4.4-4.4l4.4-4.4L1025.4,609.1z M1071.5,570.1c0-3.7-3-6.7-6.7-6.7
		c-3.7,0-6.7,3-6.7,6.7c0,0,0,0,0,0c0,3.7,3,6.7,6.7,6.7C1068.5,576.8,1071.5,573.8,1071.5,570.1"/>
	<path class="st71" d="M904.6,746.3c-4.7,0-8.5-3.8-8.5-8.5v-90.3c0-4.7,3.8-8.5,8.5-8.5c4.7,0,8.5,3.8,8.5,8.5v90.3
		C913.1,742.5,909.3,746.3,904.6,746.3"/>
</g>
<g>
	
		<linearGradient id="SVGID_54_" gradientUnits="userSpaceOnUse" x1="433.8653" y1="837.4135" x2="433.8653" y2="464.5192" gradientTransform="matrix(0.7071 0.7071 -0.7071 0.7071 304.6614 -383.6505)">
		<stop  offset="5.128210e-03" style="stop-color:#FFFFFF;stop-opacity:0"/>
		<stop  offset="1" style="stop-color:#FFFFFF"/>
	</linearGradient>
	<polygon class="st77" points="23.5,519.5 15.1,511.1 278.8,247.4 287.2,255.8 	"/>
	<g>
		<defs>
			<rect id="SVGID_55_" y="-589.7" width="2269.3" height="1701.7"/>
		</defs>
		<clipPath id="SVGID_56_">
			<use xlink:href="#SVGID_55_"  style="overflow:visible;"/>
		</clipPath>
		<g class="st78">
			
				<linearGradient id="SVGID_57_" gradientUnits="userSpaceOnUse" x1="1927.9447" y1="401.2247" x2="1927.9447" y2="28.3258" gradientTransform="matrix(0.7071 0.7071 -0.7071 0.7071 304.6614 -383.6505)">
				<stop  offset="5.128210e-03" style="stop-color:#FFFFFF;stop-opacity:0"/>
				<stop  offset="1" style="stop-color:#FFFFFF"/>
			</linearGradient>
			<polygon class="st79" points="1388.4,1267.5 1380,1259.1 1643.7,995.4 1652.1,1003.8 			"/>
			
				<linearGradient id="SVGID_58_" gradientUnits="userSpaceOnUse" x1="1983.0933" y1="-481.1853" x2="1983.0933" y2="-854.0842" gradientTransform="matrix(0.7071 0.7071 -0.7071 0.7071 304.6614 -383.6505)">
				<stop  offset="5.128210e-03" style="stop-color:#FFFFFF;stop-opacity:0"/>
				<stop  offset="1" style="stop-color:#FFFFFF"/>
			</linearGradient>
			<polygon class="st80" points="2051.4,682.6 2042.9,674.1 2306.6,410.5 2315,418.9 			"/>
			
				<linearGradient id="SVGID_59_" gradientUnits="userSpaceOnUse" x1="787.3289" y1="1416.4923" x2="787.3289" y2="1043.598" gradientTransform="matrix(0.7071 0.7071 -0.7071 0.7071 304.6614 -383.6505)">
				<stop  offset="5.128210e-03" style="stop-color:#FFFFFF;stop-opacity:0"/>
				<stop  offset="1" style="stop-color:#FFFFFF"/>
			</linearGradient>
			<polygon class="st81" points="-136,1178.9 -144.4,1170.5 119.2,906.8 127.7,915.2 			"/>
			
				<linearGradient id="SVGID_60_" gradientUnits="userSpaceOnUse" x1="1265.4142" y1="1072.7084" x2="1265.4142" y2="699.8141" gradientTransform="matrix(0.7071 0.7071 -0.7071 0.7071 304.6614 -383.6505)">
				<stop  offset="5.128210e-03" style="stop-color:#FFFFFF;stop-opacity:0"/>
				<stop  offset="1" style="stop-color:#FFFFFF"/>
			</linearGradient>
			<polygon class="st82" points="445.1,1273.8 436.7,1265.4 700.4,1001.7 708.8,1010.2 			"/>
		</g>
	</g>
	
		<linearGradient id="SVGID_61_" gradientUnits="userSpaceOnUse" x1="1015.4538" y1="997.85" x2="1015.4538" y2="624.955" gradientTransform="matrix(0.7071 0.7071 -0.7071 0.7071 304.6614 -383.6505)">
		<stop  offset="5.128210e-03" style="stop-color:#FFFFFF;stop-opacity:0"/>
		<stop  offset="1" style="stop-color:#FFFFFF"/>
	</linearGradient>
	<polygon class="st83" points="321.3,1044.2 312.9,1035.7 576.6,772.1 585,780.5 	"/>
	
		<linearGradient id="SVGID_62_" gradientUnits="userSpaceOnUse" x1="1571.9723" y1="255.83" x2="1571.9723" y2="-117.0743" gradientTransform="matrix(0.7071 0.7071 -0.7071 0.7071 304.6614 -383.6505)">
		<stop  offset="5.128210e-03" style="stop-color:#FFFFFF;stop-opacity:0"/>
		<stop  offset="1" style="stop-color:#FFFFFF"/>
	</linearGradient>
	<polygon class="st84" points="1239.5,913 1231.1,904.6 1494.8,640.9 1503.2,649.3 	"/>
</g>
</svg>
