<svg id="Layer_1" data-name="Layer 1" xmlns="http://www.w3.org/2000/svg" xmlns:xlink="http://www.w3.org/1999/xlink" viewBox="0 0 4237.6 4224.1"><defs><style>.cls-1,.cls-8{fill:none;}.cls-2{clip-path:url(#clip-path);}.cls-3{fill:url(#radial-gradient);}.cls-4{clip-path:url(#clip-path-2);}.cls-5{opacity:0.25;}.cls-6{fill:#8d60f7;}.cls-7{fill:#5a29c4;}.cls-10,.cls-8{stroke:#000;stroke-miterlimit:10;}.cls-11,.cls-9{isolation:isolate;}.cls-9{font-size:0.5px;font-family:ArialMT, Arial;}.cls-10{stroke-width:0.5px;}.cls-11,.cls-12{fill:#fff;}.cls-12,.cls-13,.cls-14,.cls-15,.cls-16{fill-rule:evenodd;}.cls-13{fill:#15003e;}.cls-14{fill:#0fce7c;}.cls-15{fill:#eff4ee;}.cls-16{fill:#25e899;}</style><clipPath id="clip-path" transform="translate(524.6 818.4)"><rect class="cls-1" y="-1.4" width="3000" height="1114.7"/></clipPath><radialGradient id="radial-gradient" cx="1244.35" cy="-538.05" r="1755.65" gradientTransform="matrix(1, 0, 0, -1, 524.6, 1930.4)" gradientUnits="userSpaceOnUse"><stop offset="0" stop-color="#0e0133"/><stop offset="1" stop-color="#0e0133"/></radialGradient><clipPath id="clip-path-2" transform="translate(524.6 818.4)"><rect class="cls-1" x="-511.3" y="-105.6" width="3511.3" height="3511.3"/></clipPath></defs><g class="cls-2"><rect class="cls-3" x="13.3" y="712.8" width="3511.3" height="3511.3"/><g class="cls-4"><g class="cls-5"><path class="cls-6" d="M2685.9-186.4l28.2,349.6L2324.6-186.4Zm-4.1,4.7H2336.7l372,333.7Z" transform="translate(524.6 818.4)"/><path class="cls-6" d="M2713.3,156.5l544.5,973.8-74.9,20.3L2709.2,158.7ZM3251,1127.3,2744.3,221.2l441.1,923.9Z" transform="translate(524.6 818.4)"/><path class="cls-6" d="M3708.9,494.2l3,.8-457.6,638.1L2706.5,153.5Zm-4.4,3.3L2716.4,161.7l538.5,962.9Z" transform="translate(524.6 818.4)"/><path class="cls-6" d="M3471.3,40.5l1.9-.5L3713,500.2,2710.6,159.8l-9-3Zm-.8,4.6L2721.3,158.4l982.1,333.7Z" transform="translate(524.6 818.4)"/><polygon class="cls-6" points="2853.6 636 3234.6 977.8 3237.7 974.2 2856.6 632.6 2853.6 636"/><path class="cls-6" d="M2841.7-186.4,2710,168.3l-28.8-354.7Zm-6.8,4.7H2686.5l26.6,328.9Z" transform="translate(524.6 818.4)"/><path class="cls-6" d="M2836.8-186.4h550l88.1,231-767,116Zm546.7,4.7H2840.1L2715,154.7l753.6-114Z" transform="translate(524.6 818.4)"/><path class="cls-6" d="M2710.6,150.5,3186.3,1147l3,5.6L2569.9,875.5l-1.6-.8Zm1.6,14.5L2573.4,872l606.3,271.6Z" transform="translate(524.6 818.4)"/><path class="cls-6" d="M2570.4,868.7l455.9,661.5,3,4.3-714.6-115.8-3-.4Zm.8,9.3-252.7,536.6,701.2,113.7Z" transform="translate(524.6 818.4)"/><path class="cls-6" d="M3185.2,1145.9l2.2,1-160.8,385.4-1.6,4.1L2569,874.7l-4.7-6.9Zm-3.9,3.3L2577.5,878.9l446.6,648Z" transform="translate(524.6 818.4)"/><path class="cls-6" d="M2570.1,841.6a29.7,29.7,0,1,0,29.6,29.8A29.9,29.9,0,0,0,2570.1,841.6Z" transform="translate(524.6 818.4)"/><path class="cls-6" d="M2726.5,101.7a57.15,57.15,0,1,0,57.1,57.1A57.15,57.15,0,0,0,2726.5,101.7Z" transform="translate(524.6 818.4)"/></g><path class="cls-6" d="M3156.9-186.4,3011.2,316.7,2712-186.4Zm-147,491.6,141-486.9h-431Z" transform="translate(524.6 818.4)"/><path class="cls-6" d="M3019.5,1041.5l-403.3,52,2.7-4.1,387.6-613.5Zm-393.9,46.1,389-50.2-12.3-546.2Z" transform="translate(524.6 818.4)"/><path class="cls-6" d="M3166.8,1969l-857.3-219.2,3-2.8,706.1-635.5Zm-847.7-221.4L3161,1962.8l-145.4-842.2Z" transform="translate(524.6 818.4)"/><path class="cls-6" d="M3022.8,1114.2l-4.1,3.6L2307.3,1758l312.2-669.9,1.6.1ZM2321,1739.4l690.5-621.3-389.3-25.2Z" transform="translate(524.6 818.4)"/><path class="cls-6" d="M3019.2,1036.8v81.7l-398.3-25.8-.3-4.5Zm-4.7,76.8V1042L2645,1089.7Z" transform="translate(524.6 818.4)"/><path class="cls-6" d="M3008.5,444.6a35.55,35.55,0,1,1-35.4,35.4A35.47,35.47,0,0,1,3008.5,444.6Z" transform="translate(524.6 818.4)"/><path class="cls-6" d="M3012.6,278.6a29.75,29.75,0,1,1-29.6,29.6A29.79,29.79,0,0,1,3012.6,278.6Z" transform="translate(524.6 818.4)"/><path class="cls-6" d="M2626.9,1059.4a29.7,29.7,0,1,1-29.6,29.8A29.83,29.83,0,0,1,2626.9,1059.4Z" transform="translate(524.6 818.4)"/><path class="cls-6" d="M3018.4,1014.9a29.7,29.7,0,1,1-29.6,29.6A29.47,29.47,0,0,1,3018.4,1014.9Z" transform="translate(524.6 818.4)"/><path class="cls-6" d="M3012.1,1101a17.45,17.45,0,1,1-17.3,17.6A17.44,17.44,0,0,1,3012.1,1101Z" transform="translate(524.6 818.4)"/></g><polygon class="cls-7" points="1482.9 1360.6 1138.1 804.6 1142 802.1 1487.1 1357.9 1482.9 1360.6"/><path class="cls-7" d="M961.6,547.2,606.5-24.8l401.2,315.5-.3,1.4ZM624.2-5.1,959.1,534.5l43.6-242Z" transform="translate(524.6 818.4)"/><path class="cls-7" d="M3080.8,569.9,2731.2,180.1l349.6,28.3Zm-338.4-384,333.7,372V212.8Z" transform="translate(524.6 818.4)"/><path class="cls-7" d="M2735.7,185l-992-473.8,20.3-74.9,973.8,544.5ZM1749.2-291.2l923.9,441.4L1767-356.7Z" transform="translate(524.6 818.4)"/><path class="cls-7" d="M2740.9,187.8,1761.3-359.7l638.1-457.8.8,3ZM1769.8-360.3l962.9,538.2L2396.9-810.2Z" transform="translate(524.6 818.4)"/><path class="cls-7" d="M2737.6,192.7l-3-9.1-340.4-1002,460.3,239.8-.6,1.6ZM2402.2-809.1,2736,173.3l113.3-749.5Z" transform="translate(524.6 818.4)"/><polygon class="cls-7" points="3601.4 1383.7 3259.6 1002.9 3263.2 999.9 3604.8 1380.6 3601.4 1383.7"/><path class="cls-7" d="M1487.5,582,957.8,543l45.5-255.1ZM963.3,538.6l505.4,37.6L1006.9,295.3Z" transform="translate(524.6 818.4)"/><polygon class="cls-7" points="2002.2 1399.8 1484.9 1361.4 1485.1 1357 2002.8 1395.2 2002.2 1399.8"/><path class="cls-7" d="M-389.4,417.1l-.5-3.8L-524.6-484.8l3.4,1.1L441.5-156.2ZM-519-478l132.9,886.9,817.5-564Z" transform="translate(524.6 818.4)"/><polygon class="cls-7" points="138.2 1233.3 135.5 1229.5 959.8 660.8 962.4 664.7 138.2 1233.3"/><path class="cls-7" d="M3080.8,213.3l-354.7-28.8L3080.8,52.8Zm-333.6-31.8,328.9,26.6V59.4Z" transform="translate(524.6 818.4)"/><path class="cls-7" d="M2733.8,186.7l116-767.3,231,88.3V57.5Zm119.8-761-114,753.6L3076.1,54.5V-489.1Z" transform="translate(524.6 818.4)"/><path class="cls-7" d="M2019.7,326.3l-.8-1.9L1741.8-294.7l5.6,2.7,996.5,476ZM1750.9-285.1l271.6,606L2729.4,182Z" transform="translate(524.6 818.4)"/><path class="cls-7" d="M1005.5,294.8l-1.8-1.4L609.6-16.6l759-116.9ZM620.9-13.6l383.9,302,352.4-415.3Z" transform="translate(524.6 818.4)"/><path class="cls-7" d="M1476.1,582.5l-.4-3L1360-135.1l4.3,3,661.5,455.9Zm-110-707.7,113.7,700.9,536.6-252.4Z" transform="translate(524.6 818.4)"/><path class="cls-7" d="M2026.6,330.2l-6.9-4.7L1358-130.7l4.1-1.6,385.4-160.5,1,2.2Zm-659-459.8,648,446.6L1745.3-286.8Z" transform="translate(524.6 818.4)"/><path class="cls-7" d="M2052.8,324.4a29.7,29.7,0,1,1-59.4,0,29.7,29.7,0,0,1,59.4,0Z" transform="translate(524.6 818.4)"/><path class="cls-7" d="M1509.7,579.8a29.75,29.75,0,0,1-59.5,0,29.75,29.75,0,0,1,59.5,0Z" transform="translate(524.6 818.4)"/><path class="cls-7" d="M648.5-18.2a29.83,29.83,0,0,1-29.8,29.9,29.66,29.66,0,0,1-29.6-29.9,29.66,29.66,0,0,1,29.6-29.6A29.7,29.7,0,0,1,648.5-18.2Z" transform="translate(524.6 818.4)"/><path class="cls-7" d="M1035.3,289.8a29.7,29.7,0,1,1-29.8-29.6A29.58,29.58,0,0,1,1035.3,289.8Z" transform="translate(524.6 818.4)"/><path class="cls-7" d="M2792.7,168a57.15,57.15,0,1,1-57.1-57.1A57.15,57.15,0,0,1,2792.7,168Z" transform="translate(524.6 818.4)"/><path class="cls-6" d="M3080.8,182.3,2577.7-117l503.1-145.7Zm-4.7-8V-256.4L2589.2-115.7Z" transform="translate(524.6 818.4)"/><path class="cls-6" d="M739.4,333.2l-454.1,6.6L648.6-237.7Zm-5.2-4.7L646-224.8,293.8,335.1Z" transform="translate(524.6 818.4)"/><path class="cls-6" d="M736,341.1l-90.9-572-.3-2.5,286.9-39.2Zm1.5-20L925.2-267,650-229.5Z" transform="translate(524.6 818.4)"/><path class="cls-6" d="M1149.4,585,735.6,332.9l-1.5-.8L928.7-278Zm-7.3-9.6L928.3-261,739.4,329.9Z" transform="translate(524.6 818.4)"/><path class="cls-6" d="M2418.6-112,1805.1,275.3,1801,278l52-403.3Zm-15.4,4.3L1857-120.3,1806.8,269Z" transform="translate(524.6 818.4)"/><path class="cls-6" d="M1782.8-124.1,1147.3,581.7l-2.7,3.3L925.4-272.5Zm-9,3L931.6-266.8l215.2,842.2Z" transform="translate(524.6 818.4)"/><path class="cls-6" d="M1806.1,273.4l.1,1.6L1136.3,587.2l640.3-711.3,3.6-4.1Zm-4.5-1.4-25.2-389L1155,573.2Z" transform="translate(524.6 818.4)"/><path class="cls-6" d="M1806.1,273.7h-4.5l-25.8-398.6h81.7Zm-1.5-24.2,47.7-369.8h-71.6Z" transform="translate(524.6 818.4)"/><path class="cls-6" d="M302.4,340.3l-649.6-32.6,124.8-190.4Zm-25.7-5.7L-220.6,123.1-338.8,303.3Z" transform="translate(524.6 818.4)"/><path class="cls-6" d="M290.4,340.3-227.6,120,653-236.3Zm-1.8-5.7,352.9-561L-215.6,120.3Z" transform="translate(524.6 818.4)"/><path class="cls-6" d="M650-229.7-236.6,128.8,597.9-510.4Zm-5.2-3L594.6-501.8-206.7,111.6Z" transform="translate(524.6 818.4)"/><path class="cls-6" d="M600.9-506.5-220.1,122l-4.8,3.8L-63.6-784.1Zm-9.2,1.1L-60.2-777.6l-158,892.4Z" transform="translate(524.6 818.4)"/><path class="cls-6" d="M329.2,340.6a35.6,35.6,0,1,0-35.5,35.7A35.49,35.49,0,0,0,329.2,340.6Z" transform="translate(524.6 818.4)"/><path class="cls-6" d="M759.5,332.9a25,25,0,1,0-25,25.2A25.07,25.07,0,0,0,759.5,332.9Z" transform="translate(524.6 818.4)"/><path class="cls-6" d="M1835,267.3a29.7,29.7,0,1,0-29.8,29.9A29.9,29.9,0,0,0,1835,267.3Z" transform="translate(524.6 818.4)"/><path class="cls-6" d="M1205.5,573.2a57.1,57.1,0,1,0-57.1,57.1A57.25,57.25,0,0,0,1205.5,573.2Z" transform="translate(524.6 818.4)"/></g><line class="cls-8" x1="2266.2" y1="2041.7" x2="2272.9" y2="2041.7"/><line class="cls-8" x1="2266.2" y1="2041.7" x2="2266.2" y2="2041.7"/><line class="cls-8" x1="2272.9" y1="2041.7" x2="2272.9" y2="2041.7"/><text class="cls-9" transform="translate(2265.52 2041.91)">0.0</text><text class="cls-9" transform="translate(2265.52 2042.31)">0.2</text><text class="cls-9" transform="translate(2265.52 2042.71)">0.4</text><text class="cls-9" transform="translate(2265.52 2043.11)">0.6</text><text class="cls-9" transform="translate(2265.52 2043.51)">0.8</text><text class="cls-9" transform="translate(2265.52 2043.91)">1.0</text><line class="cls-8" x1="2266.2" y1="2041.7" x2="2266.2" y2="2043.7"/><line class="cls-8" x1="2266.2" y1="2041.7" x2="2266.4" y2="2041.7"/><line class="cls-8" x1="2266.2" y1="2042.1" x2="2266.4" y2="2042.1"/><line class="cls-8" x1="2266.2" y1="2042.5" x2="2266.4" y2="2042.5"/><line class="cls-8" x1="2266.2" y1="2042.9" x2="2266.4" y2="2042.9"/><line class="cls-8" x1="2266.2" y1="2043.3" x2="2266.4" y2="2043.3"/><line class="cls-8" x1="2266.2" y1="2043.7" x2="2266.4" y2="2043.7"/><rect class="cls-10" x="2267.2" y="2041.7" width="4.8" height="2"/><circle class="cls-11" cx="2597.53" cy="1572.7" r="228.26"/><path class="cls-12" d="M2152.12,679.76l31,61-23.53,99.79-56-45.79,9.8-73.18Z" transform="translate(524.6 818.4)"/><path class="cls-13" d="M2069.42,659.3a11.67,11.67,0,0,1-11.66-11.66V555.71a11.66,11.66,0,0,1,23.32,0v92a11.65,11.65,0,0,1-11.66,11.59" transform="translate(524.6 818.4)"/><path class="cls-13" d="M2088.09,659.3H2052a11.66,11.66,0,0,1,0-23.32h36.05a11.72,11.72,0,0,1,11.52,11.87,11.59,11.59,0,0,1-11.52,11.45" transform="translate(524.6 818.4)"/><path class="cls-12" d="M2152.12,679.76l38.34-36.13a162.11,162.11,0,1,0-114.67,276.7c33.41,0,62.74,12.16,88.56-5.15l32.05,4.43-.86-52.07-91.85-72.76,19.74-93.06,28.69-22" transform="translate(524.6 818.4)"/><path class="cls-13" d="M2075.79,936.28c-98.15,0-178-79.83-178-178s79.83-178,178-178a177,177,0,0,1,125.9,52.15l11.59,11.59L2163,691.42l-21.82-23.18L2166.93,644a144.91,144.91,0,0,0-91.14-31.84c-80.62,0-146.15,65.53-146.15,146.15s65.53,146.15,146.15,146.15" transform="translate(524.6 818.4)"/><path class="cls-14" d="M2165.14,844.86l-22.82-22.11a92.59,92.59,0,0,0-2-130.9l-11.87-11.59,12.8-12.09,10.88,11.51L2162.56,669a124.49,124.49,0,0,1,2.58,175.91" transform="translate(524.6 818.4)"/><path class="cls-15" d="M2039.16,758.23a36.56,36.56,0,1,1,36.56,36.55,36.53,36.53,0,0,1-36.56-36.55" transform="translate(524.6 818.4)"/><path class="cls-13" d="M2075.79,737.63a20.68,20.68,0,1,0,20.67,20.67,20.68,20.68,0,0,0-20.67-20.67m0,73.18a52.51,52.51,0,1,1,52.51-52.51,52.55,52.55,0,0,1-52.51,52.51m114.67-167.18L2098,729.12" transform="translate(524.6 818.4)"/><path class="cls-13" d="M2108.77,740.85l-21.61-23.4,92.5-85.48,21.6,23.39Z" transform="translate(524.6 818.4)"/><path class="cls-12" d="M2093.1,790.56l66.53,50,35.84,27v68.67l-72.11-3.43" transform="translate(524.6 818.4)"/><path class="cls-13" d="M2211.35,936.28H2072.93V904.45h106.66v-28.9l-96.07-72.32,19.17-25.4,108.66,81.84Z" transform="translate(524.6 818.4)"/><path class="cls-16" d="M2248.19,564.51l-12.73,12.74-12.74-12.74,12.74-12.73Z" transform="translate(524.6 818.4)"/><path class="cls-16" d="M2180,503l-6.08,6.08-6.08-6.08,6.08-6.08Zm63.38-53.51a9.2,9.2,0,0,0-18.39-.07h0a9.2,9.2,0,0,0,18.39.07" transform="translate(524.6 818.4)"/><path class="cls-13" d="M2014.2,691.42a11.67,11.67,0,0,1-11.66-11.66v-124a11.66,11.66,0,1,1,23.32,0v124a11.67,11.67,0,0,1-11.66,11.66" transform="translate(524.6 818.4)"/></svg>